<svg width="21" height="20" viewBox="0 0 21 20" fill="none" xmlns="http://www.w3.org/2000/svg">
<g id="fluent-emoji:red-heart">
<g id="Group">
<path id="Vector" d="M10.2543 16.535C10.3902 16.61 10.5433 16.6484 10.6985 16.6465C10.8538 16.6446 11.0059 16.6024 11.1399 16.5241C12.9963 15.4634 16.221 13.0218 17.4874 9.85043C19.3468 5.72085 14.9815 2.42465 11.965 4.79528C11.6501 5.04286 11.2544 5.32618 10.9825 5.59395C10.8592 5.71515 10.6422 5.72758 10.5143 5.61156C10.1569 5.28526 9.59699 4.86779 9.23753 4.62488C6.66593 2.88458 1.9863 5.17856 3.98246 10.0737C4.7138 12.2708 8.19853 15.3873 10.2543 16.535Z" fill="url(#paint0_radial_50_2189)"/>
<path id="Vector_2" d="M10.2543 16.535C10.3902 16.61 10.5433 16.6484 10.6985 16.6465C10.8538 16.6446 11.0059 16.6024 11.1399 16.5241C12.9963 15.4634 16.221 13.0218 17.4874 9.85043C19.3468 5.72085 14.9815 2.42465 11.965 4.79528C11.6501 5.04286 11.2544 5.32618 10.9825 5.59395C10.8592 5.71515 10.6422 5.72758 10.5143 5.61156C10.1569 5.28526 9.59699 4.86779 9.23753 4.62488C6.66593 2.88458 1.9863 5.17856 3.98246 10.0737C4.7138 12.2708 8.19853 15.3873 10.2543 16.535Z" fill="url(#paint1_radial_50_2189)"/>
<path id="Vector_3" d="M10.2543 16.535C10.3902 16.61 10.5433 16.6484 10.6985 16.6465C10.8538 16.6446 11.0059 16.6024 11.1399 16.5241C12.9963 15.4634 16.221 13.0218 17.4874 9.85043C19.3468 5.72085 14.9815 2.42465 11.965 4.79528C11.6501 5.04286 11.2544 5.32618 10.9825 5.59395C10.8592 5.71515 10.6422 5.72758 10.5143 5.61156C10.1569 5.28526 9.59699 4.86779 9.23753 4.62488C6.66593 2.88458 1.9863 5.17856 3.98246 10.0737C4.7138 12.2708 8.19853 15.3873 10.2543 16.535Z" fill="url(#paint2_radial_50_2189)"/>
<path id="Vector_4" d="M10.2543 16.535C10.3902 16.61 10.5433 16.6484 10.6985 16.6465C10.8538 16.6446 11.0059 16.6024 11.1399 16.5241C12.9963 15.4634 16.221 13.0218 17.4874 9.85043C19.3468 5.72085 14.9815 2.42465 11.965 4.79528C11.6501 5.04286 11.2544 5.32618 10.9825 5.59395C10.8592 5.71515 10.6422 5.72758 10.5143 5.61156C10.1569 5.28526 9.59699 4.86779 9.23753 4.62488C6.66593 2.88458 1.9863 5.17856 3.98246 10.0737C4.7138 12.2708 8.19853 15.3873 10.2543 16.535Z" fill="url(#paint3_radial_50_2189)"/>
<path id="Vector_5" d="M10.2543 16.535C10.3902 16.61 10.5433 16.6484 10.6985 16.6465C10.8538 16.6446 11.0059 16.6024 11.1399 16.5241C12.9963 15.4634 16.221 13.0218 17.4874 9.85043C19.3468 5.72085 14.9815 2.42465 11.965 4.79528C11.6501 5.04286 11.2544 5.32618 10.9825 5.59395C10.8592 5.71515 10.6422 5.72758 10.5143 5.61156C10.1569 5.28526 9.59699 4.86779 9.23753 4.62488C6.66593 2.88458 1.9863 5.17856 3.98246 10.0737C4.7138 12.2708 8.19853 15.3873 10.2543 16.535Z" fill="url(#paint4_linear_50_2189)"/>
<path id="Vector_6" d="M10.2543 16.535C10.3902 16.61 10.5433 16.6484 10.6985 16.6465C10.8538 16.6446 11.0059 16.6024 11.1399 16.5241C12.9963 15.4634 16.221 13.0218 17.4874 9.85043C19.3468 5.72085 14.9815 2.42465 11.965 4.79528C11.6501 5.04286 11.2544 5.32618 10.9825 5.59395C10.8592 5.71515 10.6422 5.72758 10.5143 5.61156C10.1569 5.28526 9.59699 4.86779 9.23753 4.62488C6.66593 2.88458 1.9863 5.17856 3.98246 10.0737C4.7138 12.2708 8.19853 15.3873 10.2543 16.535Z" fill="url(#paint5_linear_50_2189)"/>
<path id="Vector_7" d="M10.2543 16.535C10.3902 16.61 10.5433 16.6484 10.6985 16.6465C10.8538 16.6446 11.0059 16.6024 11.1399 16.5241C12.9963 15.4634 16.221 13.0218 17.4874 9.85043C19.3468 5.72085 14.9815 2.42465 11.965 4.79528C11.6501 5.04286 11.2544 5.32618 10.9825 5.59395C10.8592 5.71515 10.6422 5.72758 10.5143 5.61156C10.1569 5.28526 9.59699 4.86779 9.23753 4.62488C6.66593 2.88458 1.9863 5.17856 3.98246 10.0737C4.7138 12.2708 8.19853 15.3873 10.2543 16.535Z" fill="url(#paint6_radial_50_2189)" fill-opacity="0.6"/>
<g id="Group_2" filter="url(#filter0_f_50_2189)">
<path id="Vector_8" d="M10.6122 6.86983V10.4038C10.6122 10.8725 11.1799 11.0947 11.472 10.7285C12.3758 9.59422 13.1051 8.21597 12.2914 7.08996C11.9796 6.65799 11.3818 6.38141 10.8934 6.46946C10.7111 6.50209 10.6122 6.68441 10.6122 6.87035V6.86983Z" fill="#FA1C56"/>
</g>
<g id="Group_3" filter="url(#filter1_f_50_2189)">
<path id="Vector_9" d="M16.4826 8.67737C17.3978 7.78769 17.5416 6.45124 16.8039 5.69234C16.0662 4.93344 14.7262 5.03945 13.811 5.92913C12.8958 6.81881 12.7519 8.15525 13.4897 8.91416C14.2274 9.67306 15.5674 9.56705 16.4826 8.67737Z" fill="url(#paint7_radial_50_2189)"/>
</g>
<g id="Group_4" filter="url(#filter2_f_50_2189)">
<path id="Vector_10" d="M14.5007 4.73601C14.9812 4.79641 15.381 4.76347 15.3937 4.66243C15.4064 4.56139 15.0272 4.43052 14.5467 4.37011C14.0662 4.30971 13.6663 4.34265 13.6536 4.44369C13.6409 4.54473 14.0202 4.67561 14.5007 4.73601Z" fill="#FF7383"/>
</g>
<g id="Group_5" filter="url(#filter3_f_50_2189)">
<path id="Vector_11" d="M7.23723 4.6751C7.67171 4.66982 8.02322 4.6078 8.02236 4.53658C8.02149 4.46535 7.66857 4.4119 7.23409 4.41719C6.79961 4.42247 6.44809 4.48449 6.44896 4.55572C6.44982 4.62694 6.80274 4.68039 7.23723 4.6751Z" fill="#FF93BA" fill-opacity="0.5"/>
</g>
<g id="Group_6" filter="url(#filter4_f_50_2189)">
<path id="Vector_12" d="M10.0616 6.56997L10.2237 11.8789C6.66282 8.41489 5.97757 5.98262 7.34236 5.43671C8.63722 4.91877 9.67311 5.76043 10.0616 6.56997Z" fill="url(#paint8_radial_50_2189)"/>
</g>
<g id="Group_7" filter="url(#filter5_f_50_2189)">
<path id="Vector_13" d="M9.8026 6.2597C9.36752 6.19755 9.23286 5.83654 9.21991 5.66406C9.46852 5.92303 9.71196 5.94479 9.8026 5.92303V6.2597Z" fill="#FF7383"/>
</g>
</g>
</g>
<defs>
<filter id="filter0_f_50_2189" x="8.61218" y="4.45312" width="6.03192" height="8.45801" filterUnits="userSpaceOnUse" color-interpolation-filters="sRGB">
<feFlood flood-opacity="0" result="BackgroundImageFix"/>
<feBlend mode="normal" in="SourceGraphic" in2="BackgroundImageFix" result="shape"/>
<feGaussianBlur stdDeviation="1" result="effect1_foregroundBlur_50_2189"/>
</filter>
<filter id="filter1_f_50_2189" x="11.5182" y="3.68555" width="7.25708" height="7.23535" filterUnits="userSpaceOnUse" color-interpolation-filters="sRGB">
<feFlood flood-opacity="0" result="BackgroundImageFix"/>
<feBlend mode="normal" in="SourceGraphic" in2="BackgroundImageFix" result="shape"/>
<feGaussianBlur stdDeviation="0.75" result="effect1_foregroundBlur_50_2189"/>
</filter>
<filter id="filter2_f_50_2189" x="11.6533" y="2.33984" width="5.74072" height="4.42676" filterUnits="userSpaceOnUse" color-interpolation-filters="sRGB">
<feFlood flood-opacity="0" result="BackgroundImageFix"/>
<feBlend mode="normal" in="SourceGraphic" in2="BackgroundImageFix" result="shape"/>
<feGaussianBlur stdDeviation="1" result="effect1_foregroundBlur_50_2189"/>
</filter>
<filter id="filter3_f_50_2189" x="4.94897" y="2.91699" width="4.57336" height="3.25879" filterUnits="userSpaceOnUse" color-interpolation-filters="sRGB">
<feFlood flood-opacity="0" result="BackgroundImageFix"/>
<feBlend mode="normal" in="SourceGraphic" in2="BackgroundImageFix" result="shape"/>
<feGaussianBlur stdDeviation="0.75" result="effect1_foregroundBlur_50_2189"/>
</filter>
<filter id="filter4_f_50_2189" x="3.68866" y="2.27734" width="9.53503" height="12.6016" filterUnits="userSpaceOnUse" color-interpolation-filters="sRGB">
<feFlood flood-opacity="0" result="BackgroundImageFix"/>
<feBlend mode="normal" in="SourceGraphic" in2="BackgroundImageFix" result="shape"/>
<feGaussianBlur stdDeviation="1.5" result="effect1_foregroundBlur_50_2189"/>
</filter>
<filter id="filter5_f_50_2189" x="8.21991" y="4.66406" width="2.5827" height="2.5957" filterUnits="userSpaceOnUse" color-interpolation-filters="sRGB">
<feFlood flood-opacity="0" result="BackgroundImageFix"/>
<feBlend mode="normal" in="SourceGraphic" in2="BackgroundImageFix" result="shape"/>
<feGaussianBlur stdDeviation="0.5" result="effect1_foregroundBlur_50_2189"/>
</filter>
<radialGradient id="paint0_radial_50_2189" cx="0" cy="0" r="1" gradientUnits="userSpaceOnUse" gradientTransform="translate(10.5992 4.32861) rotate(90) scale(11.9047 12.6389)">
<stop stop-color="#FC0000"/>
<stop offset="0.528" stop-color="#FF3B79"/>
<stop offset="1" stop-color="#F724B3"/>
</radialGradient>
<radialGradient id="paint1_radial_50_2189" cx="0" cy="0" r="1" gradientUnits="userSpaceOnUse" gradientTransform="translate(14.2984 7.29592) rotate(134.402) scale(11.0139 20.6302)">
<stop offset="0.798" stop-color="#C82092" stop-opacity="0"/>
<stop offset="0.908" stop-color="#C82092"/>
</radialGradient>
<radialGradient id="paint2_radial_50_2189" cx="0" cy="0" r="1" gradientUnits="userSpaceOnUse" gradientTransform="translate(12.73 10.6242) rotate(-158.663) scale(11.7827 16.6566)">
<stop offset="0.41" stop-color="#B91D43" stop-opacity="0"/>
<stop offset="0.834" stop-color="#B91D43"/>
</radialGradient>
<radialGradient id="paint3_radial_50_2189" cx="0" cy="0" r="1" gradientUnits="userSpaceOnUse" gradientTransform="translate(10.4319 8.56644) rotate(90) scale(10.2549 10.2549)">
<stop offset="0.671" stop-color="#FF7AF2" stop-opacity="0"/>
<stop offset="0.934" stop-color="#FFBCE6"/>
</radialGradient>
<linearGradient id="paint4_linear_50_2189" x1="11.5636" y1="9.76652" x2="15.7139" y2="14.7056" gradientUnits="userSpaceOnUse">
<stop offset="0.694" stop-color="#FF7AF2" stop-opacity="0"/>
<stop offset="0.934" stop-color="#FFBCE6"/>
</linearGradient>
<linearGradient id="paint5_linear_50_2189" x1="11.0493" y1="9.97214" x2="6.17907" y2="15.4598" gradientUnits="userSpaceOnUse">
<stop offset="0.694" stop-color="#FF7AF2" stop-opacity="0"/>
<stop offset="0.934" stop-color="#FFBCE6"/>
</linearGradient>
<radialGradient id="paint6_radial_50_2189" cx="0" cy="0" r="1" gradientUnits="userSpaceOnUse" gradientTransform="translate(11.8754 8.08993) rotate(164.618) scale(8.91621 9.41634)">
<stop offset="0.802" stop-color="#FF73A6" stop-opacity="0"/>
<stop offset="1" stop-color="#FF93BA"/>
</radialGradient>
<radialGradient id="paint7_radial_50_2189" cx="0" cy="0" r="1" gradientUnits="userSpaceOnUse" gradientTransform="translate(16.7568 5.64807) rotate(128.737) scale(3.77653 5.0218)">
<stop stop-color="#FF7383"/>
<stop offset="1" stop-color="#FF7383" stop-opacity="0"/>
</radialGradient>
<radialGradient id="paint8_radial_50_2189" cx="0" cy="0" r="1" gradientUnits="userSpaceOnUse" gradientTransform="translate(10.8385 8.57856) rotate(-135.591) scale(6.5707 11.6641)">
<stop stop-color="#FF6274"/>
<stop offset="1" stop-color="#FF6274" stop-opacity="0"/>
</radialGradient>
</defs>
</svg>
