<svg width="21" height="20" viewBox="0 0 21 20" fill="none" xmlns="http://www.w3.org/2000/svg">
<g id="more_vert_black_24dp 2" clip-path="url(#clip0_50_2221)">
<path id="Vector" d="M10.5 6.66634C11.4167 6.66634 12.1667 5.91634 12.1667 4.99967C12.1667 4.08301 11.4167 3.33301 10.5 3.33301C9.58334 3.33301 8.83334 4.08301 8.83334 4.99967C8.83334 5.91634 9.58334 6.66634 10.5 6.66634ZM10.5 8.33301C9.58334 8.33301 8.83334 9.08301 8.83334 9.99968C8.83334 10.9163 9.58334 11.6663 10.5 11.6663C11.4167 11.6663 12.1667 10.9163 12.1667 9.99968C12.1667 9.08301 11.4167 8.33301 10.5 8.33301ZM10.5 13.333C9.58334 13.333 8.83334 14.083 8.83334 14.9997C8.83334 15.9163 9.58334 16.6663 10.5 16.6663C11.4167 16.6663 12.1667 15.9163 12.1667 14.9997C12.1667 14.083 11.4167 13.333 10.5 13.333Z" fill="black"/>
</g>
<defs>
<clipPath id="clip0_50_2221">
<rect width="20" height="20" fill="white" transform="translate(0.5)"/>
</clipPath>
</defs>
</svg>
