<svg width="21" height="20" viewBox="0 0 21 20" fill="none" xmlns="http://www.w3.org/2000/svg">
<g clip-path="url(#clip0_50_2210)">
<path d="M11.9787 4.08516V7.78194C11.9787 8.61001 12.2523 9.37894 12.7181 10H8.28195C8.76253 9.36416 9.0213 8.59523 9.0213 7.78194V4.08516H11.9787ZM14.1968 2.60645H6.80324C6.39659 2.60645 6.06388 2.93916 6.06388 3.3458C6.06388 3.75245 6.39659 4.08516 6.80324 4.08516H7.54259V7.78194C7.54259 9.00927 6.55185 10 5.32452 10V11.4787H9.73848V16.6542L10.4778 17.3936L11.2172 16.6542V11.4787H15.6755V10C14.4482 10 13.4574 9.00927 13.4574 7.78194V4.08516H14.1968C14.6034 4.08516 14.9362 3.75245 14.9362 3.3458C14.9362 2.93916 14.6034 2.60645 14.1968 2.60645Z" fill="black"/>
</g>
<defs>
<clipPath id="clip0_50_2210">
<rect width="20" height="20" fill="white" transform="translate(0.5)"/>
</clipPath>
</defs>
</svg>
