<svg width="21" height="21" viewBox="0 0 21 21" fill="none" xmlns="http://www.w3.org/2000/svg">
<g id="fluent-emoji:sad-but-relieved-face" clip-path="url(#clip0_50_2099)">
<g id="Group">
<g id="Clip path group">
<mask id="mask0_50_2099" style="mask-type:luminance" maskUnits="userSpaceOnUse" x="0" y="0" width="21" height="21">
<g id="f2143idh">
<path id="Vector" d="M0.5 0.0507812H20.5V20.0508H0.5V0.0507812Z" fill="white"/>
</g>
</mask>
<g mask="url(#mask0_50_2099)">
<g id="Group_2">
<path id="Vector_2" d="M10.7452 16.9149C15.3219 16.9149 17.6093 13.8415 17.6093 10.0502C17.6093 6.25993 15.3219 3.18652 10.7447 3.18652C6.16839 3.18652 3.88098 6.25993 3.88098 10.0507C3.88098 13.8415 6.1679 16.9149 10.7452 16.9149Z" fill="url(#paint0_radial_50_2099)"/>
<path id="Vector_3" d="M10.7452 16.9149C15.3219 16.9149 17.6093 13.8415 17.6093 10.0502C17.6093 6.25993 15.3219 3.18652 10.7447 3.18652C6.16839 3.18652 3.88098 6.25993 3.88098 10.0507C3.88098 13.8415 6.1679 16.9149 10.7452 16.9149Z" fill="url(#paint1_radial_50_2099)"/>
<path id="Vector_4" d="M10.7452 16.9149C15.3219 16.9149 17.6093 13.8415 17.6093 10.0502C17.6093 6.25993 15.3219 3.18652 10.7447 3.18652C6.16839 3.18652 3.88098 6.25993 3.88098 10.0507C3.88098 13.8415 6.1679 16.9149 10.7452 16.9149Z" fill="url(#paint2_radial_50_2099)"/>
<path id="Vector_5" d="M10.7452 16.9149C15.3219 16.9149 17.6093 13.8415 17.6093 10.0502C17.6093 6.25993 15.3219 3.18652 10.7447 3.18652C6.16839 3.18652 3.88098 6.25993 3.88098 10.0507C3.88098 13.8415 6.1679 16.9149 10.7452 16.9149Z" fill="url(#paint3_radial_50_2099)" fill-opacity="0.6"/>
<path id="Vector_6" d="M10.7452 16.9149C15.3219 16.9149 17.6093 13.8415 17.6093 10.0502C17.6093 6.25993 15.3219 3.18652 10.7447 3.18652C6.16839 3.18652 3.88098 6.25993 3.88098 10.0507C3.88098 13.8415 6.1679 16.9149 10.7452 16.9149Z" fill="url(#paint4_radial_50_2099)"/>
<path id="Vector_7" d="M10.7452 16.9149C15.3219 16.9149 17.6093 13.8415 17.6093 10.0502C17.6093 6.25993 15.3219 3.18652 10.7447 3.18652C6.16839 3.18652 3.88098 6.25993 3.88098 10.0507C3.88098 13.8415 6.1679 16.9149 10.7452 16.9149Z" fill="url(#paint5_radial_50_2099)"/>
<path id="Vector_8" d="M10.7452 16.9149C15.3219 16.9149 17.6093 13.8415 17.6093 10.0502C17.6093 6.25993 15.3219 3.18652 10.7447 3.18652C6.16839 3.18652 3.88098 6.25993 3.88098 10.0507C3.88098 13.8415 6.1679 16.9149 10.7452 16.9149Z" fill="url(#paint6_radial_50_2099)"/>
<path id="Vector_9" d="M10.7452 16.9149C15.3219 16.9149 17.6093 13.8415 17.6093 10.0502C17.6093 6.25993 15.3219 3.18652 10.7447 3.18652C6.16839 3.18652 3.88098 6.25993 3.88098 10.0507C3.88098 13.8415 6.1679 16.9149 10.7452 16.9149Z" fill="url(#paint7_radial_50_2099)"/>
<path id="Vector_10" d="M7.3216 12.5495C8.58707 12.5495 9.61293 11.5236 9.61293 10.2581C9.61293 8.99266 8.58707 7.9668 7.3216 7.9668C6.05614 7.9668 5.03027 8.99266 5.03027 10.2581C5.03027 11.5236 6.05614 12.5495 7.3216 12.5495Z" fill="url(#paint8_radial_50_2099)"/>
<path id="Vector_11" d="M12.3363 12.5946C13.4856 12.5946 14.4173 11.6629 14.4173 10.5136C14.4173 9.3643 13.4856 8.43262 12.3363 8.43262C11.187 8.43262 10.2553 9.3643 10.2553 10.5136C10.2553 11.6629 11.187 12.5946 12.3363 12.5946Z" fill="url(#paint9_radial_50_2099)"/>
<path id="Vector_12" d="M8.00955 11.6315C8.28302 11.6357 8.5546 11.5855 8.80848 11.4838C9.06237 11.382 9.29347 11.2308 9.48836 11.0389C9.68324 10.847 9.83801 10.6183 9.94365 10.366C10.0493 10.1137 10.1037 9.84293 10.1037 9.56942C10.1037 9.29592 10.0493 9.02514 9.94365 8.77286C9.83801 8.52058 9.68324 8.29183 9.48836 8.09993C9.29347 7.90803 9.06237 7.75681 8.80848 7.65507C8.5546 7.55333 8.28302 7.50311 8.00955 7.50733C7.46815 7.51567 6.95176 7.7366 6.57185 8.12241C6.19194 8.50822 5.979 9.02796 5.979 9.56942C5.979 10.1109 6.19194 10.6306 6.57185 11.0164C6.95176 11.4022 7.46815 11.6232 8.00955 11.6315ZM13.4758 11.6693C13.7491 11.6693 14.0197 11.6154 14.2722 11.5109C14.5247 11.4063 14.7542 11.253 14.9474 11.0597C15.1407 10.8664 15.294 10.637 15.3986 10.3845C15.5032 10.132 15.557 9.86137 15.557 9.58806C15.557 9.31475 15.5032 9.04411 15.3986 8.79161C15.294 8.5391 15.1407 8.30967 14.9474 8.11641C14.7542 7.92315 14.5247 7.76985 14.2722 7.66526C14.0197 7.56067 13.7491 7.50684 13.4758 7.50684C12.9237 7.50684 12.3943 7.72613 12.004 8.11648C11.6136 8.50683 11.3943 9.03626 11.3943 9.5883C11.3943 10.1403 11.6136 10.6698 12.004 11.0601C12.3943 11.4505 12.9237 11.6693 13.4758 11.6693Z" fill="white"/>
<path id="Vector_13" d="M8.29394 11.0318C8.68407 11.0318 9.05823 10.8769 9.33409 10.601C9.60996 10.3251 9.76494 9.95098 9.76494 9.56084C9.76494 9.17071 9.60996 8.79656 9.33409 8.52069C9.05823 8.24482 8.68407 8.08984 8.29394 8.08984C7.9038 8.08984 7.52965 8.24482 7.25378 8.52069C6.97792 8.79656 6.82294 9.17071 6.82294 9.56084C6.82294 9.95098 6.97792 10.3251 7.25378 10.601C7.52965 10.8769 7.9038 11.0318 8.29394 11.0318Z" fill="url(#paint10_linear_50_2099)"/>
<path id="Vector_14" d="M13.1973 11.0318C13.5875 11.0318 13.9616 10.8769 14.2375 10.601C14.5133 10.3251 14.6683 9.95098 14.6683 9.56084C14.6683 9.17071 14.5133 8.79656 14.2375 8.52069C13.9616 8.24482 13.5875 8.08984 13.1973 8.08984C12.8072 8.08984 12.433 8.24482 12.1572 8.52069C11.8813 8.79656 11.7263 9.17071 11.7263 9.56084C11.7263 9.95098 11.8813 10.3251 12.1572 10.601C12.433 10.8769 12.8072 11.0318 13.1973 11.0318Z" fill="url(#paint11_linear_50_2099)"/>
<path id="Vector_15" d="M8.0488 5.39258C8.0488 5.39258 7.80363 6.86358 6.08746 6.86358" stroke="url(#paint12_linear_50_2099)" stroke-width="0.490333" stroke-linecap="round" stroke-linejoin="round"/>
<path id="Vector_16" d="M8.0488 5.39258C8.0488 5.39258 7.80363 6.86358 6.08746 6.86358" stroke="url(#paint13_radial_50_2099)" stroke-width="0.490333" stroke-linecap="round" stroke-linejoin="round"/>
<path id="Vector_17" d="M13.4424 5.39258C13.4424 5.39258 13.6876 6.86358 15.4038 6.86358" stroke="url(#paint14_radial_50_2099)" stroke-width="0.490333" stroke-linecap="round" stroke-linejoin="round"/>
<path id="Vector_18" d="M9.2746 13.4835C9.2746 13.4835 9.76493 12.9932 10.7456 12.9932C11.7263 12.9932 12.2166 13.4835 12.2166 13.4835" stroke="url(#paint15_linear_50_2099)" stroke-width="0.784534" stroke-linecap="round"/>
<path id="Vector_19" d="M5.84229 11.7678C5.84229 11.0908 5.29347 10.542 4.61646 10.542C3.93945 10.542 3.39062 11.0908 3.39062 11.7678V13.7292C3.39062 14.4062 3.93945 14.955 4.61646 14.955C5.29347 14.955 5.84229 14.4062 5.84229 13.7292V11.7678Z" fill="url(#paint16_radial_50_2099)"/>
</g>
</g>
</g>
</g>
</g>
<defs>
<radialGradient id="paint0_radial_50_2099" cx="0" cy="0" r="1" gradientUnits="userSpaceOnUse" gradientTransform="translate(15.4039 6.61865) rotate(132.839) scale(18.3891)">
<stop stop-color="#FFF478"/>
<stop offset="0.475" stop-color="#FFB02E"/>
<stop offset="1" stop-color="#F70A8D"/>
</radialGradient>
<radialGradient id="paint1_radial_50_2099" cx="0" cy="0" r="1" gradientUnits="userSpaceOnUse" gradientTransform="translate(15.4032 6.61917) rotate(131.878) scale(19.0978)">
<stop stop-color="#FFF478"/>
<stop offset="0.475" stop-color="#FFB02E"/>
<stop offset="1" stop-color="#F70A8D"/>
</radialGradient>
<radialGradient id="paint2_radial_50_2099" cx="0" cy="0" r="1" gradientUnits="userSpaceOnUse" gradientTransform="translate(10.7453 8.33489) rotate(101.31) scale(8.75078 11.2081)">
<stop offset="0.788" stop-color="#F59639" stop-opacity="0"/>
<stop offset="0.973" stop-color="#FF7DCE"/>
</radialGradient>
<radialGradient id="paint3_radial_50_2099" cx="0" cy="0" r="1" gradientUnits="userSpaceOnUse" gradientTransform="translate(11.7263 9.07052) rotate(135) scale(20.1096)">
<stop offset="0.315" stop-opacity="0"/>
<stop offset="1"/>
</radialGradient>
<radialGradient id="paint4_radial_50_2099" cx="0" cy="0" r="1" gradientUnits="userSpaceOnUse" gradientTransform="translate(10.7456 10.5419) rotate(77.692) scale(13.8014)">
<stop offset="0.508" stop-color="#7D6133" stop-opacity="0"/>
<stop offset="1" stop-color="#715B32"/>
</radialGradient>
<radialGradient id="paint5_radial_50_2099" cx="0" cy="0" r="1" gradientUnits="userSpaceOnUse" gradientTransform="translate(10.9908 10.2964) rotate(55.713) scale(6.52805 4.73188)">
<stop stop-color="#FFB849"/>
<stop offset="1" stop-color="#FFB847" stop-opacity="0"/>
</radialGradient>
<radialGradient id="paint6_radial_50_2099" cx="0" cy="0" r="1" gradientUnits="userSpaceOnUse" gradientTransform="translate(12.9522 11.0319) rotate(9.86582) scale(5.72347)">
<stop stop-color="#FFA64B"/>
<stop offset="0.9" stop-color="#FFAE46" stop-opacity="0"/>
</radialGradient>
<radialGradient id="paint7_radial_50_2099" cx="0" cy="0" r="1" gradientUnits="userSpaceOnUse" gradientTransform="translate(11.4812 9.56099) rotate(43.971) scale(28.9556)">
<stop offset="0.185" stop-opacity="0"/>
<stop offset="1" stop-opacity="0.4"/>
</radialGradient>
<radialGradient id="paint8_radial_50_2099" cx="0" cy="0" r="1" gradientUnits="userSpaceOnUse" gradientTransform="translate(9.10391 8.47548) rotate(135) scale(4.46487 2.31087)">
<stop stop-color="#392108"/>
<stop offset="1" stop-color="#C87928" stop-opacity="0"/>
</radialGradient>
<radialGradient id="paint9_radial_50_2099" cx="0" cy="0" r="1" gradientUnits="userSpaceOnUse" gradientTransform="translate(13.9547 8.89487) rotate(135) scale(3.7607 2.12298)">
<stop stop-color="#392108"/>
<stop offset="1" stop-color="#C87928" stop-opacity="0"/>
</radialGradient>
<linearGradient id="paint10_linear_50_2099" x1="10.9908" y1="7.59951" x2="10.5004" y2="11.0318" gradientUnits="userSpaceOnUse">
<stop stop-color="#553B3E"/>
<stop offset="1" stop-color="#3D2432"/>
</linearGradient>
<linearGradient id="paint11_linear_50_2099" x1="10.9908" y1="7.59951" x2="10.5005" y2="11.0318" gradientUnits="userSpaceOnUse">
<stop stop-color="#553B3E"/>
<stop offset="1" stop-color="#3D2432"/>
</linearGradient>
<linearGradient id="paint12_linear_50_2099" x1="7.55846" y1="5.14741" x2="7.55846" y2="5.88291" gradientUnits="userSpaceOnUse">
<stop offset="0.03" stop-color="#524049"/>
<stop offset="1" stop-color="#4A2C42"/>
</linearGradient>
<radialGradient id="paint13_radial_50_2099" cx="0" cy="0" r="1" gradientUnits="userSpaceOnUse" gradientTransform="translate(6.33263 5.14741) rotate(54.4623) scale(2.109)">
<stop offset="0.542" stop-color="#493032"/>
<stop offset="0.807" stop-color="#5E445A"/>
<stop offset="0.955" stop-color="#4A2C42"/>
</radialGradient>
<radialGradient id="paint14_radial_50_2099" cx="0" cy="0" r="1" gradientUnits="userSpaceOnUse" gradientTransform="translate(15.1586 5.14772) rotate(125.538) scale(2.109)">
<stop stop-color="#C2B4B5"/>
<stop offset="0.887" stop-color="#462B45"/>
<stop offset="1" stop-color="#4A2C42"/>
</radialGradient>
<linearGradient id="paint15_linear_50_2099" x1="10.7456" y1="12.0125" x2="10.7456" y2="12.9932" gradientUnits="userSpaceOnUse">
<stop stop-color="#4F3C43"/>
<stop offset="1" stop-color="#512756"/>
</linearGradient>
<radialGradient id="paint16_radial_50_2099" cx="0" cy="0" r="1" gradientUnits="userSpaceOnUse" gradientTransform="translate(5.43387 10.7423) rotate(104.88) scale(4.77367 1.81271)">
<stop stop-color="#5C98FF"/>
<stop offset="0.806" stop-color="#3D5BF1"/>
<stop offset="0.962" stop-color="#6065CA"/>
</radialGradient>
<clipPath id="clip0_50_2099">
<rect width="20" height="20" fill="white" transform="translate(0.5 0.0507812)"/>
</clipPath>
</defs>
</svg>
