<svg width="21" height="20" viewBox="0 0 21 20" fill="none" xmlns="http://www.w3.org/2000/svg">
<g id="ios_share_FILL0_wght500_GRAD0_opsz48 2">
<path id="Vector" d="M5.12683 18.4184C4.7436 18.4184 4.41127 18.2773 4.12986 17.9949C3.84846 17.7125 3.70776 17.379 3.70776 16.9944L3.70776 8.43738C3.70776 8.05762 3.84846 7.72617 4.12986 7.44303C4.41127 7.15988 4.7436 7.01831 5.12683 7.01831H8.51742V8.43738H5.12683V16.9944H15.8682V8.43738H12.436V7.01831H15.8682C16.2528 7.01831 16.5863 7.15988 16.8687 7.44303C17.1511 7.72617 17.2923 8.05762 17.2923 8.43738V16.9944C17.2923 17.379 17.1511 17.7125 16.8687 17.9949C16.5863 18.2773 16.2528 18.4184 15.8682 18.4184H5.12683ZM9.76715 13.7949V4.32097L7.93421 6.15391L6.91901 5.14371L10.4767 1.58105L14.0344 5.14371L13.0192 6.15391L11.1862 4.32097V13.7949H9.76715Z" fill="black"/>
</g>
</svg>
