<svg width="21" height="21" viewBox="0 0 21 21" fill="none" xmlns="http://www.w3.org/2000/svg">
<g id="fluent-emoji:rolling-on-the-floor-laughing">
<g id="Group">
<g id="Clip path group">
<mask id="mask0_50_2016" style="mask-type:luminance" maskUnits="userSpaceOnUse" x="2" y="2" width="17" height="16">
<g id="f2135idn">
<path id="Vector" d="M2.59912 2.15039H18.4009V17.9521H2.59912V2.15039Z" fill="white"/>
</g>
</mask>
<g mask="url(#mask0_50_2016)">
<g id="Group_2">
<g id="Clip path group_2">
<mask id="mask1_50_2016" style="mask-type:luminance" maskUnits="userSpaceOnUse" x="-1" y="-2" width="23" height="24">
<g id="f2135ido">
<path id="Vector_2" d="M-0.673279 10.0513L10.5 -1.12207L21.6734 10.0513L10.5 21.2246L-0.673279 10.0513Z" fill="white"/>
</g>
</mask>
<g mask="url(#mask1_50_2016)">
<g id="Group_3">
<path id="Vector_3" d="M15.3872 14.9386C18.6463 11.6795 18.0869 7.86241 15.3872 5.16228C12.6876 2.46265 8.87049 1.90317 5.61138 5.16228C2.35227 8.4214 2.91175 12.2385 5.61138 14.9386C8.31052 17.6383 12.1281 18.1977 15.3872 14.9386Z" fill="url(#paint0_radial_50_2016)"/>
<path id="Vector_4" d="M15.3872 14.9386C18.6463 11.6795 18.0869 7.86241 15.3872 5.16228C12.6876 2.46265 8.87049 1.90317 5.61138 5.16228C2.35227 8.4214 2.91175 12.2385 5.61138 14.9386C8.31052 17.6383 12.1281 18.1977 15.3872 14.9386Z" fill="url(#paint1_radial_50_2016)"/>
<path id="Vector_5" d="M15.3872 14.9386C18.6463 11.6795 18.0869 7.86241 15.3872 5.16228C12.6876 2.46265 8.87049 1.90317 5.61138 5.16228C2.35227 8.4214 2.91175 12.2385 5.61138 14.9386C8.31052 17.6383 12.1281 18.1977 15.3872 14.9386Z" fill="url(#paint2_radial_50_2016)"/>
<path id="Vector_6" d="M15.3872 14.9386C18.6463 11.6795 18.0869 7.86241 15.3872 5.16228C12.6876 2.46265 8.87049 1.90317 5.61138 5.16228C2.35227 8.4214 2.91175 12.2385 5.61138 14.9386C8.31052 17.6383 12.1281 18.1977 15.3872 14.9386Z" fill="url(#paint3_radial_50_2016)" fill-opacity="0.6"/>
<path id="Vector_7" d="M15.3872 14.9386C18.6463 11.6795 18.0869 7.86241 15.3872 5.16228C12.6876 2.46265 8.87049 1.90317 5.61138 5.16228C2.35227 8.4214 2.91175 12.2385 5.61138 14.9386C8.31052 17.6383 12.1281 18.1977 15.3872 14.9386Z" fill="url(#paint4_radial_50_2016)"/>
<path id="Vector_8" d="M15.3872 14.9386C18.6463 11.6795 18.0869 7.86241 15.3872 5.16228C12.6876 2.46265 8.87049 1.90317 5.61138 5.16228C2.35227 8.4214 2.91175 12.2385 5.61138 14.9386C8.31052 17.6383 12.1281 18.1977 15.3872 14.9386Z" fill="url(#paint5_radial_50_2016)"/>
<path id="Vector_9" d="M15.3872 14.9386C18.6463 11.6795 18.0869 7.86241 15.3872 5.16228C12.6876 2.46265 8.87049 1.90317 5.61138 5.16228C2.35227 8.4214 2.91175 12.2385 5.61138 14.9386C8.31052 17.6383 12.1281 18.1977 15.3872 14.9386Z" fill="url(#paint6_radial_50_2016)"/>
<path id="Vector_10" d="M15.3872 14.9386C18.6463 11.6795 18.0869 7.86241 15.3872 5.16228C12.6876 2.46265 8.87049 1.90317 5.61138 5.16228C2.35227 8.4214 2.91175 12.2385 5.61138 14.9386C8.31052 17.6383 12.1281 18.1977 15.3872 14.9386Z" fill="url(#paint7_radial_50_2016)"/>
</g>
</g>
</g>
<g id="Clip path group_3">
<mask id="mask2_50_2016" style="mask-type:luminance" maskUnits="userSpaceOnUse" x="-1" y="-2" width="23" height="24">
<g id="f2135idp">
<path id="Vector_11" d="M-0.673279 10.0513L10.5 -1.12207L21.6734 10.0513L10.5 21.2246L-0.673279 10.0513Z" fill="white"/>
</g>
</mask>
<g mask="url(#mask2_50_2016)">
<g id="Group_4">
<g id="Group_5" filter="url(#filter0_f_50_2016)">
<path id="Vector_12" d="M7.62803 11.7556C7.58453 11.8772 7.49518 11.9768 7.37911 12.0333C7.26305 12.0897 7.12949 12.0985 7.00704 12.0577C6.88458 12.0169 6.78297 11.9298 6.72396 11.815C6.66494 11.7002 6.65321 11.5669 6.69128 11.4436L7.07645 10.2881L8.20776 9.15625C8.27235 9.22112 8.31764 9.30266 8.33856 9.39178C8.35949 9.4809 8.35523 9.57408 8.32627 9.66092L7.62803 11.7556Z" fill="url(#paint8_radial_50_2016)" fill-opacity="0.6"/>
<path id="Vector_13" d="M5.60838 9.73618C5.4841 9.77757 5.38134 9.86663 5.32272 9.98378C5.2641 10.1009 5.25442 10.2366 5.29581 10.3608C5.33719 10.4851 5.42625 10.5879 5.5434 10.6465C5.66055 10.7051 5.79618 10.7148 5.92047 10.6734L7.07597 10.2883L8.20777 9.15646C8.14295 9.09196 8.06149 9.04672 7.97247 9.0258C7.88345 9.00487 7.79037 9.00908 7.7036 9.03794L5.60838 9.73668V9.73618Z" fill="url(#paint9_radial_50_2016)" fill-opacity="0.6"/>
</g>
<path id="Vector_14" d="M7.47548 11.6023C7.43409 11.7266 7.34503 11.8294 7.22788 11.888C7.16988 11.917 7.10672 11.9343 7.04203 11.9389C6.97733 11.9436 6.91236 11.9354 6.85081 11.9149C6.78927 11.8944 6.73237 11.862 6.68336 11.8195C6.63435 11.777 6.59418 11.7253 6.56515 11.6673C6.50653 11.5502 6.49685 11.4145 6.53824 11.2902L6.9234 10.1347L8.05521 9.00293C8.1198 9.0678 8.16508 9.14934 8.18601 9.23846C8.20694 9.32758 8.20268 9.42076 8.17372 9.5076L7.47548 11.6018V11.6023Z" fill="url(#paint10_linear_50_2016)"/>
<path id="Vector_15" d="M5.45532 9.58299C5.33104 9.62444 5.22831 9.71356 5.16973 9.83076C5.11116 9.94795 5.10154 10.0836 5.14299 10.2079C5.18444 10.3322 5.27357 10.4349 5.39076 10.4935C5.50795 10.5521 5.64361 10.5617 5.7679 10.5202L6.9234 10.1351L8.0552 9.00326C7.99034 8.93867 7.90879 8.89338 7.81967 8.87245C7.73056 8.85152 7.63737 8.85578 7.55054 8.88475L5.45532 9.58299Z" fill="url(#paint11_linear_50_2016)"/>
<g id="Group_6" filter="url(#filter1_f_50_2016)">
<path id="Vector_16" d="M11.9962 7.38637C12.0578 7.36588 12.1147 7.33346 12.1637 7.29098C12.2127 7.2485 12.2529 7.19678 12.2819 7.13877C12.3109 7.08077 12.3282 7.01761 12.3329 6.95292C12.3375 6.88822 12.3293 6.82324 12.3088 6.7617C12.2883 6.70016 12.2559 6.64326 12.2134 6.59425C12.1709 6.54523 12.1192 6.50507 12.0612 6.47604C12.0032 6.44702 11.9401 6.4297 11.8754 6.42508C11.8107 6.42046 11.7457 6.42863 11.6841 6.44913L10.5286 6.83429L9.39734 7.96609C9.46216 8.03059 9.54362 8.07583 9.63264 8.09675C9.72166 8.11768 9.81474 8.11347 9.90151 8.08461L11.9962 7.38637Z" fill="url(#paint12_radial_50_2016)"/>
<path id="Vector_17" d="M9.9766 5.36717C10.018 5.24289 10.107 5.14013 10.2242 5.08151C10.3413 5.02289 10.477 5.01321 10.6013 5.05459C10.7255 5.09598 10.8283 5.18504 10.8869 5.30219C10.9455 5.41934 10.9552 5.55497 10.9138 5.67926L10.5287 6.83476L9.39736 7.96656C9.33277 7.90169 9.28748 7.82015 9.26656 7.73103C9.24563 7.64191 9.24989 7.54873 9.27885 7.46189L9.97709 5.36717H9.9766Z" fill="url(#paint13_radial_50_2016)"/>
</g>
<path id="Vector_18" d="M12.0456 7.03196C12.1671 6.98846 12.2668 6.89911 12.3232 6.78304C12.3797 6.66698 12.3885 6.53342 12.3477 6.41097C12.3069 6.28852 12.2198 6.1869 12.105 6.12789C11.9902 6.06887 11.8569 6.05714 11.7335 6.09521L10.578 6.48038L9.44623 7.61218C9.5111 7.67677 9.59264 7.72206 9.68176 7.74299C9.77088 7.76392 9.86406 7.75966 9.9509 7.73069L12.0456 7.03196Z" fill="url(#paint14_linear_50_2016)"/>
<path id="Vector_19" d="M10.026 5.01251C10.0674 4.88823 10.1566 4.7855 10.2737 4.72692C10.3909 4.66835 10.5266 4.65873 10.6509 4.70018C10.7752 4.74163 10.8779 4.83076 10.9365 4.94795C10.9951 5.06514 11.0047 5.2008 10.9632 5.32509L10.5781 6.48059L9.44625 7.61239C9.38166 7.54753 9.33637 7.46598 9.31545 7.37686C9.29452 7.28774 9.29877 7.19456 9.32774 7.10773L10.026 5.01251Z" fill="url(#paint15_linear_50_2016)"/>
</g>
</g>
</g>
<path id="Vector_20" d="M13.9917 13.543C10.5 17.0347 7.0083 13.543 7.0083 13.543L13.9917 6.55957C13.9917 6.55957 17.4834 10.0513 13.9917 13.543Z" fill="url(#paint16_radial_50_2016)"/>
<path id="Vector_21" d="M13.6426 7.95556L8.40478 13.1934C8.26588 13.3322 8.07751 13.4102 7.8811 13.4102C7.68469 13.4102 7.49633 13.3322 7.35742 13.1934L13.6426 6.9082C13.7814 7.04711 13.8594 7.23547 13.8594 7.43188C13.8594 7.62829 13.7814 7.81666 13.6426 7.95556Z" fill="url(#paint17_linear_50_2016)"/>
<g id="Clip path group_4">
<mask id="mask3_50_2016" style="mask-type:luminance" maskUnits="userSpaceOnUse" x="-1" y="-2" width="23" height="24">
<g id="f2135idq">
<path id="Vector_22" d="M-0.673279 10.0513L10.5 -1.12207L21.6734 10.0513L10.5 21.2246L-0.673279 10.0513Z" fill="white"/>
</g>
</mask>
<g mask="url(#mask3_50_2016)">
<g id="Group_7">
<path id="Vector_23" fill-rule="evenodd" clip-rule="evenodd" d="M7.90307 16.5764C8.14239 16.5305 8.35824 16.4026 8.51352 16.2148C8.66879 16.027 8.75379 15.791 8.7539 15.5473V13.1938C8.7539 13.0563 8.72681 12.9201 8.67417 12.793C8.62154 12.666 8.54439 12.5505 8.44714 12.4532C8.34988 12.356 8.23442 12.2788 8.10735 12.2262C7.98028 12.1736 7.84408 12.1465 7.70654 12.1465C7.569 12.1465 7.4328 12.1736 7.30573 12.2262C7.17866 12.2788 7.0632 12.356 6.96594 12.4532C6.86869 12.5505 6.79154 12.666 6.73891 12.793C6.68627 12.9201 6.65918 13.0563 6.65918 13.1938V15.5473C6.65918 15.6619 6.67745 15.7725 6.71202 15.8762C7.09521 16.1503 7.49322 16.3848 7.90307 16.5764Z" fill="url(#paint18_radial_50_2016)"/>
<path id="Vector_24" fill-rule="evenodd" clip-rule="evenodd" d="M16.0869 5.94922H13.9043C13.6265 5.94922 13.3601 6.05957 13.1637 6.25598C12.9673 6.4524 12.8569 6.7188 12.8569 6.99658C12.8569 7.27436 12.9673 7.54076 13.1637 7.73717C13.3601 7.93359 13.6265 8.04394 13.9043 8.04394H16.2578C16.6039 8.04394 16.9086 7.87654 17.0987 7.62075C16.8346 7.02244 16.4946 6.46064 16.0869 5.94922Z" fill="url(#paint19_radial_50_2016)"/>
<path id="Vector_25" d="M8.05566 13.1938V15.5473C8.05566 15.8251 7.94531 16.0915 7.74889 16.2879C7.55248 16.4843 7.28607 16.5947 7.0083 16.5947C6.73052 16.5947 6.46412 16.4843 6.2677 16.2879C6.07128 16.0915 5.96094 15.8251 5.96094 15.5473V13.1938C5.96094 12.9161 6.07128 12.6497 6.2677 12.4532C6.46412 12.2568 6.73052 12.1465 7.0083 12.1465C7.28607 12.1465 7.55248 12.2568 7.74889 12.4532C7.94531 12.6497 8.05566 12.9161 8.05566 13.1938Z" fill="url(#paint20_radial_50_2016)"/>
<path id="Vector_26" d="M13.7295 7.51953H16.083C16.3607 7.51953 16.6271 7.40918 16.8236 7.21276C17.02 7.01634 17.1303 6.74994 17.1303 6.47216C17.1303 6.19439 17.02 5.92799 16.8236 5.73157C16.6271 5.53515 16.3607 5.4248 16.083 5.4248H13.73C13.4522 5.4248 13.1858 5.53515 12.9894 5.73157C12.793 5.92799 12.6826 6.19439 12.6826 6.47216C12.6826 6.74994 12.793 7.01634 12.9894 7.21276C13.1858 7.40918 13.4517 7.51953 13.7295 7.51953Z" fill="url(#paint21_radial_50_2016)"/>
</g>
</g>
</g>
</g>
</g>
</g>
</g>
</g>
<defs>
<filter id="filter0_f_50_2016" x="4.87546" y="8.61765" width="3.8712" height="3.8604" filterUnits="userSpaceOnUse" color-interpolation-filters="sRGB">
<feFlood flood-opacity="0" result="BackgroundImageFix"/>
<feBlend mode="normal" in="SourceGraphic" in2="BackgroundImageFix" result="shape"/>
<feGaussianBlur stdDeviation="0.197522" result="effect1_foregroundBlur_50_2016"/>
</filter>
<filter id="filter1_f_50_2016" x="8.85844" y="4.63425" width="3.87072" height="3.87017" filterUnits="userSpaceOnUse" color-interpolation-filters="sRGB">
<feFlood flood-opacity="0" result="BackgroundImageFix"/>
<feBlend mode="normal" in="SourceGraphic" in2="BackgroundImageFix" result="shape"/>
<feGaussianBlur stdDeviation="0.197522" result="effect1_foregroundBlur_50_2016"/>
</filter>
<radialGradient id="paint0_radial_50_2016" cx="0" cy="0" r="1" gradientUnits="userSpaceOnUse" gradientTransform="translate(11.373 4.28931) rotate(87.839) scale(18.5193)">
<stop stop-color="#FFF478"/>
<stop offset="0.475" stop-color="#FFB02E"/>
<stop offset="1" stop-color="#F70A8D"/>
</radialGradient>
<radialGradient id="paint1_radial_50_2016" cx="0" cy="0" r="1" gradientUnits="userSpaceOnUse" gradientTransform="translate(11.3729 4.28917) rotate(86.878) scale(19.2331)">
<stop stop-color="#FFF478"/>
<stop offset="0.475" stop-color="#FFB02E"/>
<stop offset="1" stop-color="#F70A8D"/>
</radialGradient>
<radialGradient id="paint2_radial_50_2016" cx="0" cy="0" r="1" gradientUnits="userSpaceOnUse" gradientTransform="translate(9.27788 8.82829) rotate(56.3099) scale(8.81274 11.2874)">
<stop offset="0.788" stop-color="#F59639" stop-opacity="0"/>
<stop offset="0.973" stop-color="#FF7DCE"/>
</radialGradient>
<radialGradient id="paint3_radial_50_2016" cx="0" cy="0" r="1" gradientUnits="userSpaceOnUse" gradientTransform="translate(10.5 8.65398) rotate(90) scale(20.252 20.252)">
<stop offset="0.315" stop-opacity="0"/>
<stop offset="1"/>
</radialGradient>
<radialGradient id="paint4_radial_50_2016" cx="0" cy="0" r="1" gradientUnits="userSpaceOnUse" gradientTransform="translate(10.849 10.3997) rotate(32.692) scale(13.8991)">
<stop offset="0.508" stop-color="#7D6133" stop-opacity="0"/>
<stop offset="1" stop-color="#715B32"/>
</radialGradient>
<radialGradient id="paint5_radial_50_2016" cx="0" cy="0" r="1" gradientUnits="userSpaceOnUse" gradientTransform="translate(10.8492 10.0505) rotate(10.7131) scale(6.57427 4.76538)">
<stop stop-color="#FFB849"/>
<stop offset="1" stop-color="#FFB847" stop-opacity="0"/>
</radialGradient>
<radialGradient id="paint6_radial_50_2016" cx="0" cy="0" r="1" gradientUnits="userSpaceOnUse" gradientTransform="translate(12.7695 9.17762) rotate(-35.134) scale(5.76399)">
<stop stop-color="#FFA64B"/>
<stop offset="0.9" stop-color="#FFAE46" stop-opacity="0"/>
</radialGradient>
<radialGradient id="paint7_radial_50_2016" cx="0" cy="0" r="1" gradientUnits="userSpaceOnUse" gradientTransform="translate(10.6733 9.17643) rotate(-1.029) scale(29.1606)">
<stop offset="0.185" stop-opacity="0"/>
<stop offset="1" stop-opacity="0.4"/>
</radialGradient>
<radialGradient id="paint8_radial_50_2016" cx="0" cy="0" r="1" gradientUnits="userSpaceOnUse" gradientTransform="translate(5.68787 9.5829) rotate(65.225) scale(3.74955 4.90066)">
<stop stop-color="#9F5E0F"/>
<stop offset="0.889" stop-color="#9F5E0F" stop-opacity="0"/>
</radialGradient>
<radialGradient id="paint9_radial_50_2016" cx="0" cy="0" r="1" gradientUnits="userSpaceOnUse" gradientTransform="translate(5.68789 9.5831) rotate(65.225) scale(3.74954 4.90066)">
<stop stop-color="#9F5E0F"/>
<stop offset="0.889" stop-color="#9F5E0F" stop-opacity="0"/>
</radialGradient>
<linearGradient id="paint10_linear_50_2016" x1="8.16434" y1="11.5016" x2="5.39804" y2="10.5362" gradientUnits="userSpaceOnUse">
<stop offset="0.25" stop-color="#482641"/>
<stop offset="0.406" stop-color="#503A4A"/>
<stop offset="0.511" stop-color="#482641"/>
</linearGradient>
<linearGradient id="paint11_linear_50_2016" x1="6.30911" y1="10.8471" x2="5.50717" y2="8.37613" gradientUnits="userSpaceOnUse">
<stop offset="0.25" stop-color="#482641"/>
<stop offset="0.406" stop-color="#503A4A"/>
<stop offset="0.511" stop-color="#482641"/>
</linearGradient>
<radialGradient id="paint12_radial_50_2016" cx="0" cy="0" r="1" gradientUnits="userSpaceOnUse" gradientTransform="translate(14.0845 6.07383) rotate(179.005) scale(6.59709 8.62238)">
<stop stop-color="#E9830A"/>
<stop offset="0.802" stop-color="#F08B13" stop-opacity="0"/>
</radialGradient>
<radialGradient id="paint13_radial_50_2016" cx="0" cy="0" r="1" gradientUnits="userSpaceOnUse" gradientTransform="translate(14.0846 6.0743) rotate(179.005) scale(6.59709 8.62238)">
<stop stop-color="#E9830A"/>
<stop offset="0.802" stop-color="#F08B13" stop-opacity="0"/>
</radialGradient>
<linearGradient id="paint14_linear_50_2016" x1="11.9449" y1="7.72131" x2="10.9795" y2="4.95502" gradientUnits="userSpaceOnUse">
<stop offset="0.25" stop-color="#482641"/>
<stop offset="0.406" stop-color="#503A4A"/>
<stop offset="0.511" stop-color="#482641"/>
</linearGradient>
<linearGradient id="paint15_linear_50_2016" x1="11.2906" y1="5.8663" x2="8.81912" y2="5.06436" gradientUnits="userSpaceOnUse">
<stop offset="0.25" stop-color="#482641"/>
<stop offset="0.406" stop-color="#503A4A"/>
<stop offset="0.511" stop-color="#482641"/>
</linearGradient>
<radialGradient id="paint16_radial_50_2016" cx="0" cy="0" r="1" gradientUnits="userSpaceOnUse" gradientTransform="translate(15.6849 15.4834) rotate(-135) scale(8.38017 16.7603)">
<stop offset="0.051" stop-color="#F70A8D"/>
<stop offset="1" stop-color="#89029C"/>
</radialGradient>
<linearGradient id="paint17_linear_50_2016" x1="10.5" y1="10.0508" x2="11.0239" y2="10.5747" gradientUnits="userSpaceOnUse">
<stop stop-color="#ECCDFF"/>
<stop offset="1" stop-color="white"/>
</linearGradient>
<radialGradient id="paint18_radial_50_2016" cx="0" cy="0" r="1" gradientUnits="userSpaceOnUse" gradientTransform="translate(7.53223 15.4634) rotate(-77.0054) scale(2.32928 1.512)">
<stop stop-color="#6D4534"/>
<stop offset="1" stop-color="#FF822D" stop-opacity="0"/>
</radialGradient>
<radialGradient id="paint19_radial_50_2016" cx="0" cy="0" r="1" gradientUnits="userSpaceOnUse" gradientTransform="translate(13.9917 6.90918) rotate(-11.3099) scale(2.67066 1.7336)">
<stop stop-color="#6D4534"/>
<stop offset="1" stop-color="#FF822D" stop-opacity="0"/>
</radialGradient>
<radialGradient id="paint20_radial_50_2016" cx="0" cy="0" r="1" gradientUnits="userSpaceOnUse" gradientTransform="translate(7.35732 12.4958) rotate(102.529) scale(3.21921 1.46568)">
<stop stop-color="#508FFF"/>
<stop offset="1" stop-color="#3D5BF1"/>
</radialGradient>
<radialGradient id="paint21_radial_50_2016" cx="0" cy="0" r="1" gradientUnits="userSpaceOnUse" gradientTransform="translate(14.3408 5.86133) rotate(4.39866) scale(2.27633 1.03639)">
<stop stop-color="#5092FF"/>
<stop offset="1" stop-color="#3F5FFF"/>
</radialGradient>
</defs>
</svg>
