<svg width="21" height="20" viewBox="0 0 21 20" fill="none" xmlns="http://www.w3.org/2000/svg">
<g id="fluent-emoji:thumbs-up">
<g id="Group">
<g id="Group_2" filter="url(#filter0_i_50_2058)">
<path id="Vector" d="M8.16749 3.2233C8.16274 2.95038 8.21238 2.67924 8.31353 2.42571C8.41469 2.17218 8.56532 1.94133 8.75664 1.74664C8.94797 1.55195 9.17615 1.39732 9.42788 1.29176C9.67961 1.1862 9.94984 1.13184 10.2228 1.13184C10.4958 1.13184 10.766 1.1862 11.0177 1.29176C11.2695 1.39732 11.4976 1.55195 11.689 1.74664C11.8803 1.94133 12.0309 2.17218 12.1321 2.42571C12.2332 2.67924 12.2829 2.95038 12.2781 3.2233V5.58893C12.2781 5.79018 12.2637 5.99143 12.2325 6.19268C12.2206 6.26571 12.2108 6.33907 12.2031 6.41268C12.1806 6.64393 12.2081 6.94643 12.3656 7.15018L11.9894 7.51268C12.9469 8.00311 13.7502 8.74866 14.3106 9.66697C14.871 10.5853 15.1667 11.6406 15.165 12.7164C15.1657 13.3153 15.0746 13.9108 14.895 14.4821L14.2719 18.5489H9.20875V18.5471C6.08187 18.4796 3.57312 16.4408 3.57312 12.7158C3.57312 10.5271 4.62125 8.76455 6.20687 7.7708L6.20312 7.76768C6.31125 7.69268 6.43875 7.6158 6.575 7.53393H6.57625C7.02625 7.26393 7.57625 6.93393 7.86562 6.39518C8.1175 5.9283 8.16562 5.17018 8.16562 4.8183H8.16749V3.2233Z" fill="url(#paint0_linear_50_2058)"/>
</g>
<path id="Vector_2" d="M8.16749 3.2233C8.16274 2.95038 8.21238 2.67924 8.31353 2.42571C8.41469 2.17218 8.56532 1.94133 8.75664 1.74664C8.94797 1.55195 9.17615 1.39732 9.42788 1.29176C9.67961 1.1862 9.94984 1.13184 10.2228 1.13184C10.4958 1.13184 10.766 1.1862 11.0177 1.29176C11.2695 1.39732 11.4976 1.55195 11.689 1.74664C11.8803 1.94133 12.0309 2.17218 12.1321 2.42571C12.2332 2.67924 12.2829 2.95038 12.2781 3.2233V5.58893C12.2781 5.79018 12.2637 5.99143 12.2325 6.19268C12.2206 6.26571 12.2108 6.33907 12.2031 6.41268C12.1806 6.64393 12.2081 6.94643 12.3656 7.15018L11.9894 7.51268C12.9469 8.00311 13.7502 8.74866 14.3106 9.66697C14.871 10.5853 15.1667 11.6406 15.165 12.7164C15.1657 13.3153 15.0746 13.9108 14.895 14.4821L14.2719 18.5489H9.20875V18.5471C6.08187 18.4796 3.57312 16.4408 3.57312 12.7158C3.57312 10.5271 4.62125 8.76455 6.20687 7.7708L6.20312 7.76768C6.31125 7.69268 6.43875 7.6158 6.575 7.53393H6.57625C7.02625 7.26393 7.57625 6.93393 7.86562 6.39518C8.1175 5.9283 8.16562 5.17018 8.16562 4.8183H8.16749V3.2233Z" fill="url(#paint1_radial_50_2058)"/>
<path id="Vector_3" d="M8.16749 3.2233C8.16274 2.95038 8.21238 2.67924 8.31353 2.42571C8.41469 2.17218 8.56532 1.94133 8.75664 1.74664C8.94797 1.55195 9.17615 1.39732 9.42788 1.29176C9.67961 1.1862 9.94984 1.13184 10.2228 1.13184C10.4958 1.13184 10.766 1.1862 11.0177 1.29176C11.2695 1.39732 11.4976 1.55195 11.689 1.74664C11.8803 1.94133 12.0309 2.17218 12.1321 2.42571C12.2332 2.67924 12.2829 2.95038 12.2781 3.2233V5.58893C12.2781 5.79018 12.2637 5.99143 12.2325 6.19268C12.2206 6.26571 12.2108 6.33907 12.2031 6.41268C12.1806 6.64393 12.2081 6.94643 12.3656 7.15018L11.9894 7.51268C12.9469 8.00311 13.7502 8.74866 14.3106 9.66697C14.871 10.5853 15.1667 11.6406 15.165 12.7164C15.1657 13.3153 15.0746 13.9108 14.895 14.4821L14.2719 18.5489H9.20875V18.5471C6.08187 18.4796 3.57312 16.4408 3.57312 12.7158C3.57312 10.5271 4.62125 8.76455 6.20687 7.7708L6.20312 7.76768C6.31125 7.69268 6.43875 7.6158 6.575 7.53393H6.57625C7.02625 7.26393 7.57625 6.93393 7.86562 6.39518C8.1175 5.9283 8.16562 5.17018 8.16562 4.8183H8.16749V3.2233Z" fill="url(#paint2_radial_50_2058)"/>
<path id="Vector_4" d="M8.16749 3.2233C8.16274 2.95038 8.21238 2.67924 8.31353 2.42571C8.41469 2.17218 8.56532 1.94133 8.75664 1.74664C8.94797 1.55195 9.17615 1.39732 9.42788 1.29176C9.67961 1.1862 9.94984 1.13184 10.2228 1.13184C10.4958 1.13184 10.766 1.1862 11.0177 1.29176C11.2695 1.39732 11.4976 1.55195 11.689 1.74664C11.8803 1.94133 12.0309 2.17218 12.1321 2.42571C12.2332 2.67924 12.2829 2.95038 12.2781 3.2233V5.58893C12.2781 5.79018 12.2637 5.99143 12.2325 6.19268C12.2206 6.26571 12.2108 6.33907 12.2031 6.41268C12.1806 6.64393 12.2081 6.94643 12.3656 7.15018L11.9894 7.51268C12.9469 8.00311 13.7502 8.74866 14.3106 9.66697C14.871 10.5853 15.1667 11.6406 15.165 12.7164C15.1657 13.3153 15.0746 13.9108 14.895 14.4821L14.2719 18.5489H9.20875V18.5471C6.08187 18.4796 3.57312 16.4408 3.57312 12.7158C3.57312 10.5271 4.62125 8.76455 6.20687 7.7708L6.20312 7.76768C6.31125 7.69268 6.43875 7.6158 6.575 7.53393H6.57625C7.02625 7.26393 7.57625 6.93393 7.86562 6.39518C8.1175 5.9283 8.16562 5.17018 8.16562 4.8183H8.16749V3.2233Z" fill="url(#paint3_radial_50_2058)"/>
<path id="Vector_5" d="M8.16749 3.2233C8.16274 2.95038 8.21238 2.67924 8.31353 2.42571C8.41469 2.17218 8.56532 1.94133 8.75664 1.74664C8.94797 1.55195 9.17615 1.39732 9.42788 1.29176C9.67961 1.1862 9.94984 1.13184 10.2228 1.13184C10.4958 1.13184 10.766 1.1862 11.0177 1.29176C11.2695 1.39732 11.4976 1.55195 11.689 1.74664C11.8803 1.94133 12.0309 2.17218 12.1321 2.42571C12.2332 2.67924 12.2829 2.95038 12.2781 3.2233V5.58893C12.2781 5.79018 12.2637 5.99143 12.2325 6.19268C12.2206 6.26571 12.2108 6.33907 12.2031 6.41268C12.1806 6.64393 12.2081 6.94643 12.3656 7.15018L11.9894 7.51268C12.9469 8.00311 13.7502 8.74866 14.3106 9.66697C14.871 10.5853 15.1667 11.6406 15.165 12.7164C15.1657 13.3153 15.0746 13.9108 14.895 14.4821L14.2719 18.5489H9.20875V18.5471C6.08187 18.4796 3.57312 16.4408 3.57312 12.7158C3.57312 10.5271 4.62125 8.76455 6.20687 7.7708L6.20312 7.76768C6.31125 7.69268 6.43875 7.6158 6.575 7.53393H6.57625C7.02625 7.26393 7.57625 6.93393 7.86562 6.39518C8.1175 5.9283 8.16562 5.17018 8.16562 4.8183H8.16749V3.2233Z" fill="url(#paint4_linear_50_2058)"/>
<g id="Group_3" filter="url(#filter1_f_50_2058)">
<path id="Vector_6" d="M15.2994 9.19266C15.2994 8.76964 15.1313 8.36394 14.8322 8.06482C14.5331 7.7657 14.1274 7.59766 13.7044 7.59766H11.9381C11.6106 7.59765 11.291 7.69845 11.0228 7.88638C10.7546 8.07431 10.5507 8.34024 10.4389 8.64806C10.3271 8.95587 10.3127 9.29065 10.3978 9.60691C10.4829 9.92317 10.6632 10.2056 10.9144 10.4158C10.7229 10.56 10.5663 10.7454 10.4563 10.9584C10.3462 11.1713 10.2854 11.4063 10.2784 11.6459C10.2715 11.8855 10.3185 12.1235 10.416 12.3425C10.5136 12.5615 10.6591 12.7557 10.8419 12.9108C10.6651 13.0604 10.5231 13.2468 10.4259 13.457C10.3286 13.6672 10.2784 13.8961 10.2787 14.1277V14.2058C10.2787 14.6433 10.4537 15.0389 10.7387 15.327C10.5201 15.5434 10.3706 15.8198 10.3094 16.1213C10.2482 16.4228 10.278 16.7356 10.3949 17.0201C10.5118 17.3046 10.7107 17.548 10.9662 17.7192C11.2217 17.8905 11.5224 17.982 11.83 17.982H13.5825C13.8552 17.9822 14.1231 17.9105 14.3593 17.7742C14.5955 17.6379 14.7916 17.4417 14.9279 17.2055C15.0641 16.9692 15.1357 16.7012 15.1354 16.4285C15.1351 16.1558 15.063 15.888 14.9262 15.652C15.2013 15.5235 15.434 15.3192 15.597 15.063C15.76 14.8068 15.8464 14.5094 15.8462 14.2058V14.1277C15.8462 13.6339 15.6225 13.1927 15.27 12.9002C15.4709 12.7256 15.625 12.5036 15.7186 12.2544C15.8121 12.0052 15.842 11.7367 15.8055 11.473C15.7691 11.2094 15.6675 10.959 15.51 10.7444C15.3524 10.5299 15.1438 10.3581 14.9031 10.2445C15.1591 9.95397 15.3 9.57987 15.2994 9.19266Z" fill="url(#paint5_linear_50_2058)"/>
</g>
<g id="Group_4" filter="url(#filter2_i_50_2058)">
<path id="Vector_7" d="M14.9043 10.3436C15.9088 10.3436 16.7231 9.52927 16.7231 8.5248C16.7231 7.52034 15.9088 6.70605 14.9043 6.70605H12.89C11.8855 6.70605 11.0712 7.52034 11.0712 8.5248C11.0712 9.52927 11.8855 10.3436 12.89 10.3436H14.9043Z" fill="url(#paint6_linear_50_2058)"/>
<path id="Vector_8" d="M14.9043 10.3436C15.9088 10.3436 16.7231 9.52927 16.7231 8.5248C16.7231 7.52034 15.9088 6.70605 14.9043 6.70605H12.89C11.8855 6.70605 11.0712 7.52034 11.0712 8.5248C11.0712 9.52927 11.8855 10.3436 12.89 10.3436H14.9043Z" fill="url(#paint7_radial_50_2058)"/>
</g>
<g id="Group_5" filter="url(#filter3_i_50_2058)">
<path id="Vector_9" d="M14.7656 18.5488C15.7432 18.5488 16.5356 17.7563 16.5356 16.7788C16.5356 15.8012 15.7432 15.0088 14.7656 15.0088H12.7675C11.79 15.0088 10.9975 15.8012 10.9975 16.7788C10.9975 17.7563 11.79 18.5488 12.7675 18.5488H14.7656Z" fill="url(#paint8_linear_50_2058)"/>
<path id="Vector_10" d="M14.7656 18.5488C15.7432 18.5488 16.5356 17.7563 16.5356 16.7788C16.5356 15.8012 15.7432 15.0088 14.7656 15.0088H12.7675C11.79 15.0088 10.9975 15.8012 10.9975 16.7788C10.9975 17.7563 11.79 18.5488 12.7675 18.5488H14.7656Z" fill="url(#paint9_radial_50_2058)"/>
<path id="Vector_11" d="M14.7656 18.5488C15.7432 18.5488 16.5356 17.7563 16.5356 16.7788C16.5356 15.8012 15.7432 15.0088 14.7656 15.0088H12.7675C11.79 15.0088 10.9975 15.8012 10.9975 16.7788C10.9975 17.7563 11.79 18.5488 12.7675 18.5488H14.7656Z" fill="url(#paint10_radial_50_2058)"/>
</g>
<path id="Vector_12" d="M14.7656 18.5488C15.7432 18.5488 16.5356 17.7563 16.5356 16.7788C16.5356 15.8012 15.7432 15.0088 14.7656 15.0088H12.7675C11.79 15.0088 10.9975 15.8012 10.9975 16.7788C10.9975 17.7563 11.79 18.5488 12.7675 18.5488H14.7656Z" fill="url(#paint11_linear_50_2058)"/>
<path id="Vector_13" d="M14.7656 18.5488C15.7432 18.5488 16.5356 17.7563 16.5356 16.7788C16.5356 15.8012 15.7432 15.0088 14.7656 15.0088H12.7675C11.79 15.0088 10.9975 15.8012 10.9975 16.7788C10.9975 17.7563 11.79 18.5488 12.7675 18.5488H14.7656Z" fill="url(#paint12_radial_50_2058)"/>
<g id="Group_6" filter="url(#filter4_f_50_2058)">
<path id="Vector_14" d="M15.6587 16.0615H13.225C12.9702 16.0615 12.7637 16.268 12.7637 16.5228C12.7637 16.7775 12.9702 16.984 13.225 16.984H15.6587C15.9135 16.984 16.12 16.7775 16.12 16.5228C16.12 16.268 15.9135 16.0615 15.6587 16.0615Z" fill="url(#paint13_linear_50_2058)"/>
</g>
<path id="Vector_15" d="M15.4831 16.0615C16.5124 16.0615 17.3469 15.2271 17.3469 14.1977C17.3469 13.1684 16.5124 12.334 15.4831 12.334H12.8612C11.8319 12.334 10.9975 13.1684 10.9975 14.1977C10.9975 15.2271 11.8319 16.0615 12.8612 16.0615H15.4831Z" fill="#C4C4C4" fill-opacity="0.66"/>
<g id="Group_7" filter="url(#filter5_i_50_2058)">
<path id="Vector_16" d="M17.3469 14.2427V14.1527C17.3469 13.1483 16.5326 12.334 15.5281 12.334H12.8162C11.8118 12.334 10.9975 13.1483 10.9975 14.1527V14.2427C10.9975 15.2472 11.8118 16.0615 12.8162 16.0615H15.5281C16.5326 16.0615 17.3469 15.2472 17.3469 14.2427Z" fill="url(#paint14_linear_50_2058)"/>
<path id="Vector_17" d="M17.3469 14.2427V14.1527C17.3469 13.1483 16.5326 12.334 15.5281 12.334H12.8162C11.8118 12.334 10.9975 13.1483 10.9975 14.1527V14.2427C10.9975 15.2472 11.8118 16.0615 12.8162 16.0615H15.5281C16.5326 16.0615 17.3469 15.2472 17.3469 14.2427Z" fill="url(#paint15_radial_50_2058)"/>
<path id="Vector_18" d="M17.3469 14.2427V14.1527C17.3469 13.1483 16.5326 12.334 15.5281 12.334H12.8162C11.8118 12.334 10.9975 13.1483 10.9975 14.1527V14.2427C10.9975 15.2472 11.8118 16.0615 12.8162 16.0615H15.5281C16.5326 16.0615 17.3469 15.2472 17.3469 14.2427Z" fill="url(#paint16_radial_50_2058)"/>
</g>
<g id="Group_8" filter="url(#filter6_f_50_2058)">
<path id="Vector_19" d="M16.2619 13.6426H12.9813C12.7265 13.6426 12.52 13.8491 12.52 14.1038C12.52 14.3586 12.7265 14.5651 12.9813 14.5651H16.2619C16.5166 14.5651 16.7231 14.3586 16.7231 14.1038C16.7231 13.8491 16.5166 13.6426 16.2619 13.6426Z" fill="url(#paint17_linear_50_2058)"/>
</g>
<g id="Group_9" filter="url(#filter7_i_50_2058)">
<path id="Vector_20" d="M17.3187 11.3786V11.3705C17.3187 10.366 16.5044 9.55176 15.5 9.55176H12.8162C11.8118 9.55176 10.9975 10.366 10.9975 11.3705V11.3786C10.9975 12.3831 11.8118 13.1974 12.8162 13.1974H15.5C16.5044 13.1974 17.3187 12.3831 17.3187 11.3786Z" fill="url(#paint18_linear_50_2058)"/>
<path id="Vector_21" d="M17.3187 11.3786V11.3705C17.3187 10.366 16.5044 9.55176 15.5 9.55176H12.8162C11.8118 9.55176 10.9975 10.366 10.9975 11.3705V11.3786C10.9975 12.3831 11.8118 13.1974 12.8162 13.1974H15.5C16.5044 13.1974 17.3187 12.3831 17.3187 11.3786Z" fill="url(#paint19_radial_50_2058)"/>
</g>
<path id="Vector_22" d="M10.2225 1.16797C9.67753 1.16813 9.15493 1.3847 8.76958 1.77005C8.38423 2.1554 8.16767 2.678 8.1675 3.22297V4.81859L8.16625 4.81797C8.16625 5.16922 8.1175 5.92797 7.86625 6.39484C7.57563 6.93422 7.02625 7.26359 6.57625 7.53297C6.43875 7.61547 6.31125 7.69172 6.20312 7.76672C6.825 8.26484 8.09812 9.26047 8.12937 9.23672C8.8531 8.84528 9.57894 8.45777 10.3069 8.07422L10.2769 7.64297C10.8124 7.6288 11.3212 7.40616 11.695 7.02245C12.0687 6.63874 12.278 6.12427 12.2781 5.58859V3.22297C12.278 2.67789 12.0613 2.1552 11.6758 1.76983C11.2903 1.38446 10.7676 1.16797 10.2225 1.16797Z" fill="url(#paint20_radial_50_2058)"/>
<path id="Vector_23" d="M10.2225 1.16797C9.67753 1.16813 9.15493 1.3847 8.76958 1.77005C8.38423 2.1554 8.16767 2.678 8.1675 3.22297V4.81859L8.16625 4.81797C8.16625 5.16922 8.1175 5.92797 7.86625 6.39484C7.57563 6.93422 7.02625 7.26359 6.57625 7.53297C6.43875 7.61547 6.31125 7.69172 6.20312 7.76672C6.825 8.26484 8.09812 9.26047 8.12937 9.23672C8.8531 8.84528 9.57894 8.45777 10.3069 8.07422L10.2769 7.64297C10.8124 7.6288 11.3212 7.40616 11.695 7.02245C12.0687 6.63874 12.278 6.12427 12.2781 5.58859V3.22297C12.278 2.67789 12.0613 2.1552 11.6758 1.76983C11.2903 1.38446 10.7676 1.16797 10.2225 1.16797Z" fill="url(#paint21_radial_50_2058)"/>
<path id="Vector_24" d="M8.92248 1.63184C8.68628 1.82442 8.49597 2.06722 8.36537 2.34259C8.23477 2.61795 8.16717 2.91895 8.16748 3.22371V3.34371H9.09623C9.10008 3.10341 9.08209 2.86326 9.04248 2.62621L9.03186 2.56934C8.98061 2.28934 8.92186 1.96934 8.92248 1.63184Z" fill="#FFBF71"/>
<path id="Vector_25" d="M8.92248 1.63184C8.68628 1.82442 8.49597 2.06722 8.36537 2.34259C8.23477 2.61795 8.16717 2.91895 8.16748 3.22371V3.34371H9.09623C9.10008 3.10341 9.08209 2.86326 9.04248 2.62621L9.03186 2.56934C8.98061 2.28934 8.92186 1.96934 8.92248 1.63184Z" fill="url(#paint22_radial_50_2058)"/>
<g id="Group_10" filter="url(#filter8_f_50_2058)">
<path id="Vector_26" d="M15.3337 7.20215H13.0712C12.637 7.20215 12.285 7.55416 12.285 7.9884C12.285 8.42263 12.637 8.77465 13.0712 8.77465H15.3337C15.768 8.77465 16.12 8.42263 16.12 7.9884C16.12 7.55416 15.768 7.20215 15.3337 7.20215Z" fill="url(#paint23_linear_50_2058)"/>
</g>
<g id="Group_11" filter="url(#filter9_f_50_2058)">
<path id="Vector_27" d="M15.9369 10H13.0269C12.5926 10 12.2406 10.352 12.2406 10.7862C12.2406 11.2205 12.5926 11.5725 13.0269 11.5725H15.9369C16.3711 11.5725 16.7231 11.2205 16.7231 10.7862C16.7231 10.352 16.3711 10 15.9369 10Z" fill="url(#paint24_linear_50_2058)"/>
</g>
<g id="Group_12" filter="url(#filter10_f_50_2058)">
<path id="Vector_28" d="M11.7594 2.83996C11.7594 2.34532 11.3585 1.94434 10.8641 1.94434C10.3696 1.94434 9.96875 2.34532 9.96875 2.83996V6.04684C9.96875 6.54148 10.3696 6.94246 10.8641 6.94246C11.3585 6.94246 11.7594 6.54148 11.7594 6.04684V2.83996Z" fill="url(#paint25_linear_50_2058)"/>
</g>
</g>
</g>
<defs>
<filter id="filter0_i_50_2058" x="3.57312" y="1.13184" width="12.0919" height="17.417" filterUnits="userSpaceOnUse" color-interpolation-filters="sRGB">
<feFlood flood-opacity="0" result="BackgroundImageFix"/>
<feBlend mode="normal" in="SourceGraphic" in2="BackgroundImageFix" result="shape"/>
<feColorMatrix in="SourceAlpha" type="matrix" values="0 0 0 0 0 0 0 0 0 0 0 0 0 0 0 0 0 0 127 0" result="hardAlpha"/>
<feOffset dx="0.5"/>
<feGaussianBlur stdDeviation="1"/>
<feComposite in2="hardAlpha" operator="arithmetic" k2="-1" k3="1"/>
<feColorMatrix type="matrix" values="0 0 0 0 0.847059 0 0 0 0 0.458824 0 0 0 0 0.360784 0 0 0 1 0"/>
<feBlend mode="normal" in2="shape" result="effect1_innerShadow_50_2058"/>
</filter>
<filter id="filter1_f_50_2058" x="8.27777" y="5.59766" width="9.56848" height="14.3848" filterUnits="userSpaceOnUse" color-interpolation-filters="sRGB">
<feFlood flood-opacity="0" result="BackgroundImageFix"/>
<feBlend mode="normal" in="SourceGraphic" in2="BackgroundImageFix" result="shape"/>
<feGaussianBlur stdDeviation="1" result="effect1_foregroundBlur_50_2058"/>
</filter>
<filter id="filter2_i_50_2058" x="11.0712" y="6.70605" width="6.15186" height="3.6377" filterUnits="userSpaceOnUse" color-interpolation-filters="sRGB">
<feFlood flood-opacity="0" result="BackgroundImageFix"/>
<feBlend mode="normal" in="SourceGraphic" in2="BackgroundImageFix" result="shape"/>
<feColorMatrix in="SourceAlpha" type="matrix" values="0 0 0 0 0 0 0 0 0 0 0 0 0 0 0 0 0 0 127 0" result="hardAlpha"/>
<feOffset dx="0.5"/>
<feGaussianBlur stdDeviation="0.75"/>
<feComposite in2="hardAlpha" operator="arithmetic" k2="-1" k3="1"/>
<feColorMatrix type="matrix" values="0 0 0 0 0.878431 0 0 0 0 0.541176 0 0 0 0 0.0627451 0 0 0 1 0"/>
<feBlend mode="normal" in2="shape" result="effect1_innerShadow_50_2058"/>
</filter>
<filter id="filter3_i_50_2058" x="10.9975" y="14.5088" width="6.03815" height="4.04004" filterUnits="userSpaceOnUse" color-interpolation-filters="sRGB">
<feFlood flood-opacity="0" result="BackgroundImageFix"/>
<feBlend mode="normal" in="SourceGraphic" in2="BackgroundImageFix" result="shape"/>
<feColorMatrix in="SourceAlpha" type="matrix" values="0 0 0 0 0 0 0 0 0 0 0 0 0 0 0 0 0 0 127 0" result="hardAlpha"/>
<feOffset dx="0.5" dy="-0.5"/>
<feGaussianBlur stdDeviation="0.75"/>
<feComposite in2="hardAlpha" operator="arithmetic" k2="-1" k3="1"/>
<feColorMatrix type="matrix" values="0 0 0 0 0.941176 0 0 0 0 0.643137 0 0 0 0 0.215686 0 0 0 1 0"/>
<feBlend mode="normal" in2="shape" result="effect1_innerShadow_50_2058"/>
</filter>
<filter id="filter4_f_50_2058" x="11.5137" y="14.8115" width="5.85626" height="3.42285" filterUnits="userSpaceOnUse" color-interpolation-filters="sRGB">
<feFlood flood-opacity="0" result="BackgroundImageFix"/>
<feBlend mode="normal" in="SourceGraphic" in2="BackgroundImageFix" result="shape"/>
<feGaussianBlur stdDeviation="0.625" result="effect1_foregroundBlur_50_2058"/>
</filter>
<filter id="filter5_i_50_2058" x="10.9975" y="11.834" width="6.84937" height="4.22754" filterUnits="userSpaceOnUse" color-interpolation-filters="sRGB">
<feFlood flood-opacity="0" result="BackgroundImageFix"/>
<feBlend mode="normal" in="SourceGraphic" in2="BackgroundImageFix" result="shape"/>
<feColorMatrix in="SourceAlpha" type="matrix" values="0 0 0 0 0 0 0 0 0 0 0 0 0 0 0 0 0 0 127 0" result="hardAlpha"/>
<feOffset dx="0.5" dy="-0.5"/>
<feGaussianBlur stdDeviation="0.75"/>
<feComposite in2="hardAlpha" operator="arithmetic" k2="-1" k3="1"/>
<feColorMatrix type="matrix" values="0 0 0 0 0.941176 0 0 0 0 0.643137 0 0 0 0 0.215686 0 0 0 1 0"/>
<feBlend mode="normal" in2="shape" result="effect1_innerShadow_50_2058"/>
</filter>
<filter id="filter6_f_50_2058" x="11.27" y="12.3926" width="6.70312" height="3.42285" filterUnits="userSpaceOnUse" color-interpolation-filters="sRGB">
<feFlood flood-opacity="0" result="BackgroundImageFix"/>
<feBlend mode="normal" in="SourceGraphic" in2="BackgroundImageFix" result="shape"/>
<feGaussianBlur stdDeviation="0.625" result="effect1_foregroundBlur_50_2058"/>
</filter>
<filter id="filter7_i_50_2058" x="10.9975" y="9.05176" width="6.82123" height="4.14551" filterUnits="userSpaceOnUse" color-interpolation-filters="sRGB">
<feFlood flood-opacity="0" result="BackgroundImageFix"/>
<feBlend mode="normal" in="SourceGraphic" in2="BackgroundImageFix" result="shape"/>
<feColorMatrix in="SourceAlpha" type="matrix" values="0 0 0 0 0 0 0 0 0 0 0 0 0 0 0 0 0 0 127 0" result="hardAlpha"/>
<feOffset dx="0.5" dy="-0.5"/>
<feGaussianBlur stdDeviation="0.75"/>
<feComposite in2="hardAlpha" operator="arithmetic" k2="-1" k3="1"/>
<feColorMatrix type="matrix" values="0 0 0 0 0.941176 0 0 0 0 0.643137 0 0 0 0 0.215686 0 0 0 1 0"/>
<feBlend mode="normal" in2="shape" result="effect1_innerShadow_50_2058"/>
</filter>
<filter id="filter8_f_50_2058" x="11.035" y="5.95215" width="6.33502" height="4.07227" filterUnits="userSpaceOnUse" color-interpolation-filters="sRGB">
<feFlood flood-opacity="0" result="BackgroundImageFix"/>
<feBlend mode="normal" in="SourceGraphic" in2="BackgroundImageFix" result="shape"/>
<feGaussianBlur stdDeviation="0.625" result="effect1_foregroundBlur_50_2058"/>
</filter>
<filter id="filter9_f_50_2058" x="10.9906" y="8.75" width="6.98248" height="4.07227" filterUnits="userSpaceOnUse" color-interpolation-filters="sRGB">
<feFlood flood-opacity="0" result="BackgroundImageFix"/>
<feBlend mode="normal" in="SourceGraphic" in2="BackgroundImageFix" result="shape"/>
<feGaussianBlur stdDeviation="0.625" result="effect1_foregroundBlur_50_2058"/>
</filter>
<filter id="filter10_f_50_2058" x="8.71875" y="0.694336" width="4.29065" height="7.49805" filterUnits="userSpaceOnUse" color-interpolation-filters="sRGB">
<feFlood flood-opacity="0" result="BackgroundImageFix"/>
<feBlend mode="normal" in="SourceGraphic" in2="BackgroundImageFix" result="shape"/>
<feGaussianBlur stdDeviation="0.625" result="effect1_foregroundBlur_50_2058"/>
</filter>
<linearGradient id="paint0_linear_50_2058" x1="12.5337" y1="4.14893" x2="6.24437" y2="17.3914" gradientUnits="userSpaceOnUse">
<stop stop-color="#FFCA44"/>
<stop offset="1" stop-color="#F8A528"/>
</linearGradient>
<radialGradient id="paint1_radial_50_2058" cx="0" cy="0" r="1" gradientUnits="userSpaceOnUse" gradientTransform="translate(13.2751 3.02769) rotate(141.116) scale(3.13477 9.25212)">
<stop stop-color="#FFE34C"/>
<stop offset="1" stop-color="#FFE34C" stop-opacity="0"/>
</radialGradient>
<radialGradient id="paint2_radial_50_2058" cx="0" cy="0" r="1" gradientUnits="userSpaceOnUse" gradientTransform="translate(7.56786 9.85896) rotate(125.191) scale(4.64388 3.3641)">
<stop stop-color="#FFCA2E"/>
<stop offset="1" stop-color="#FFCA2E" stop-opacity="0"/>
</radialGradient>
<radialGradient id="paint3_radial_50_2058" cx="0" cy="0" r="1" gradientUnits="userSpaceOnUse" gradientTransform="translate(12.6062 11.3314) rotate(146.743) scale(10.1192 17.7089)">
<stop offset="0.681" stop-color="#E18E3F" stop-opacity="0"/>
<stop offset="1" stop-color="#E18E3F"/>
</radialGradient>
<linearGradient id="paint4_linear_50_2058" x1="9.36875" y1="15.9758" x2="9.36875" y2="19.1639" gradientUnits="userSpaceOnUse">
<stop stop-color="#D8796F" stop-opacity="0"/>
<stop offset="1" stop-color="#D8796F"/>
</linearGradient>
<linearGradient id="paint5_linear_50_2058" x1="13.0625" y1="7.59766" x2="13.0625" y2="15.9027" gradientUnits="userSpaceOnUse">
<stop stop-color="#D1730B"/>
<stop offset="1" stop-color="#E27D47"/>
</linearGradient>
<linearGradient id="paint6_linear_50_2058" x1="16.7231" y1="8.5248" x2="11.0706" y2="8.5248" gradientUnits="userSpaceOnUse">
<stop stop-color="#FFDB44"/>
<stop offset="1" stop-color="#F9A928"/>
</linearGradient>
<radialGradient id="paint7_radial_50_2058" cx="0" cy="0" r="1" gradientUnits="userSpaceOnUse" gradientTransform="translate(11.99 10.1373) rotate(-142.633) scale(1.45069 0.971047)">
<stop stop-color="#D98320"/>
<stop offset="1" stop-color="#D98320" stop-opacity="0"/>
</radialGradient>
<linearGradient id="paint8_linear_50_2058" x1="16.0506" y1="16.7782" x2="10.9975" y2="16.7782" gradientUnits="userSpaceOnUse">
<stop stop-color="#FFDB44"/>
<stop offset="1" stop-color="#F9A928"/>
</linearGradient>
<radialGradient id="paint9_radial_50_2058" cx="0" cy="0" r="1" gradientUnits="userSpaceOnUse" gradientTransform="translate(12.1194 18.5482) scale(4.57092 1.73889)">
<stop stop-color="#F29545"/>
<stop offset="1" stop-color="#F29545" stop-opacity="0"/>
</radialGradient>
<radialGradient id="paint10_radial_50_2058" cx="0" cy="0" r="1" gradientUnits="userSpaceOnUse" gradientTransform="translate(11.9 15.6294) scale(4.63556 1.24435)">
<stop stop-color="#DA810B"/>
<stop offset="1" stop-color="#FFB610" stop-opacity="0"/>
</radialGradient>
<linearGradient id="paint11_linear_50_2058" x1="13.7663" y1="18.9132" x2="13.7663" y2="17.7682" gradientUnits="userSpaceOnUse">
<stop stop-color="#DC7C6A"/>
<stop offset="1" stop-color="#DC7C6A" stop-opacity="0"/>
</linearGradient>
<radialGradient id="paint12_radial_50_2058" cx="0" cy="0" r="1" gradientUnits="userSpaceOnUse" gradientTransform="translate(10.2644 16.7782) scale(3.50203 5.26419)">
<stop stop-color="#E38811"/>
<stop offset="1" stop-color="#E38811" stop-opacity="0"/>
</radialGradient>
<linearGradient id="paint13_linear_50_2058" x1="15.9456" y1="16.314" x2="12.3275" y2="16.314" gradientUnits="userSpaceOnUse">
<stop stop-color="#FFF166"/>
<stop offset="1" stop-color="#FFF166" stop-opacity="0"/>
</linearGradient>
<linearGradient id="paint14_linear_50_2058" x1="16.7906" y1="14.1977" x2="10.9975" y2="14.1977" gradientUnits="userSpaceOnUse">
<stop stop-color="#FFDB44"/>
<stop offset="1" stop-color="#F9A928"/>
</linearGradient>
<radialGradient id="paint15_radial_50_2058" cx="0" cy="0" r="1" gradientUnits="userSpaceOnUse" gradientTransform="translate(12.2837 16.0615) scale(5.24073 1.83104)">
<stop stop-color="#F29545"/>
<stop offset="1" stop-color="#F29545" stop-opacity="0"/>
</radialGradient>
<radialGradient id="paint16_radial_50_2058" cx="0" cy="0" r="1" gradientUnits="userSpaceOnUse" gradientTransform="translate(12.0319 12.9884) scale(5.31485 1.3103)">
<stop stop-color="#DA810B"/>
<stop offset="1" stop-color="#FFB610" stop-opacity="0"/>
</radialGradient>
<linearGradient id="paint17_linear_50_2058" x1="16.5044" y1="13.8951" x2="11.9744" y2="13.8951" gradientUnits="userSpaceOnUse">
<stop stop-color="#FFF166"/>
<stop offset="1" stop-color="#FFF166" stop-opacity="0"/>
</linearGradient>
<linearGradient id="paint18_linear_50_2058" x1="17.3187" y1="11.3749" x2="10.9981" y2="11.3749" gradientUnits="userSpaceOnUse">
<stop stop-color="#FFDB44"/>
<stop offset="1" stop-color="#F9A928"/>
</linearGradient>
<radialGradient id="paint19_radial_50_2058" cx="0" cy="0" r="1" gradientUnits="userSpaceOnUse" gradientTransform="translate(12.305 12.7568) scale(3.43792 1.53029)">
<stop stop-color="#F29545"/>
<stop offset="1" stop-color="#F29545" stop-opacity="0"/>
</radialGradient>
<radialGradient id="paint20_radial_50_2058" cx="0" cy="0" r="1" gradientUnits="userSpaceOnUse" gradientTransform="translate(8.33562 3.02672) rotate(90) scale(3.97508 1.47589)">
<stop stop-color="#F3A52A"/>
<stop offset="1" stop-color="#F3A52A" stop-opacity="0"/>
</radialGradient>
<radialGradient id="paint21_radial_50_2058" cx="0" cy="0" r="1" gradientUnits="userSpaceOnUse" gradientTransform="translate(7.175 5.64422) rotate(42.9975) scale(1.99105 3.01278)">
<stop stop-color="#CDA25E"/>
<stop offset="1" stop-color="#CDA25E" stop-opacity="0"/>
</radialGradient>
<radialGradient id="paint22_radial_50_2058" cx="0" cy="0" r="1" gradientUnits="userSpaceOnUse" gradientTransform="translate(9.24158 2.78177) rotate(-168.366) scale(1.02466 2.23656)">
<stop offset="0.55" stop-color="#CCB28B" stop-opacity="0"/>
<stop offset="1" stop-color="#CCB28B"/>
</radialGradient>
<linearGradient id="paint23_linear_50_2058" x1="15.9206" y1="7.6334" x2="11.7868" y2="7.6334" gradientUnits="userSpaceOnUse">
<stop stop-color="#FFF166"/>
<stop offset="1" stop-color="#FFF166" stop-opacity="0"/>
</linearGradient>
<linearGradient id="paint24_linear_50_2058" x1="16.49" y1="10.4312" x2="11.6581" y2="10.4312" gradientUnits="userSpaceOnUse">
<stop stop-color="#FFF166"/>
<stop offset="1" stop-color="#FFF166" stop-opacity="0"/>
</linearGradient>
<linearGradient id="paint25_linear_50_2058" x1="11.6669" y1="3.31496" x2="9.73625" y2="3.31496" gradientUnits="userSpaceOnUse">
<stop stop-color="#FFF166"/>
<stop offset="1" stop-color="#FFF166" stop-opacity="0"/>
</linearGradient>
</defs>
</svg>
